<svg width="211" height="39" viewBox="0 0 211 39" fill="none" xmlns="http://www.w3.org/2000/svg">
<path d="M26.312 4.01602C26.184 5.45602 26.088 6.84802 26.024 8.19202C25.992 9.53602 25.976 10.576 25.976 11.312C25.976 12.016 25.992 12.688 26.024 13.328C26.056 13.968 26.088 14.512 26.12 14.96H25.016C24.6 12.464 24.024 10.512 23.288 9.10402C22.552 7.66402 21.64 6.64002 20.552 6.03202C19.496 5.42402 18.232 5.12002 16.76 5.12002H15.176C14.248 5.12002 13.544 5.20002 13.064 5.36002C12.584 5.52002 12.264 5.84002 12.104 6.32002C11.944 6.80002 11.864 7.53602 11.864 8.52802V32.624C11.864 33.872 11.992 34.8 12.248 35.408C12.504 36.016 13 36.416 13.736 36.608C14.472 36.8 15.56 36.912 17 36.944V38C16.008 37.968 14.728 37.936 13.16 37.904C11.592 37.872 9.94402 37.856 8.21602 37.856C6.84002 37.856 5.49602 37.872 4.18402 37.904C2.87202 37.936 1.68802 37.968 0.632019 38V37.04C1.65602 36.976 2.42402 36.848 2.93602 36.656C3.44802 36.464 3.78402 36.08 3.94402 35.504C4.13602 34.928 4.23202 34.064 4.23202 32.912V9.10402C4.23202 7.92002 4.13602 7.05602 3.94402 6.51202C3.78402 5.93602 3.43202 5.55202 2.88802 5.36002C2.37602 5.13602 1.62402 5.00802 0.632019 4.97602V4.01602C1.94402 4.04802 3.33602 4.08002 4.80802 4.11202C6.28002 4.11202 7.73602 4.12802 9.17602 4.16002C10.616 4.16002 11.96 4.16002 13.208 4.16002C14.456 4.16002 15.48 4.16002 16.28 4.16002C17.752 4.16002 19.416 4.16002 21.272 4.16002C23.16 4.12802 24.84 4.08002 26.312 4.01602ZM19.16 20.624C19.16 20.624 19.16 20.784 19.16 21.104C19.16 21.424 19.16 21.584 19.16 21.584H10.424C10.424 21.584 10.424 21.424 10.424 21.104C10.424 20.784 10.424 20.624 10.424 20.624H19.16ZM20.36 14.288C20.232 16.112 20.168 17.504 20.168 18.464C20.2 19.424 20.216 20.304 20.216 21.104C20.216 21.904 20.232 22.784 20.264 23.744C20.296 24.704 20.376 26.096 20.504 27.92H19.4C19.208 26.8 18.904 25.76 18.488 24.8C18.072 23.84 17.464 23.072 16.664 22.496C15.864 21.888 14.824 21.584 13.544 21.584V20.624C14.504 20.624 15.304 20.432 15.944 20.048C16.616 19.632 17.176 19.104 17.624 18.464C18.072 17.792 18.424 17.088 18.68 16.352C18.936 15.616 19.128 14.928 19.256 14.288H20.36Z" fill="#FAFAFA"/>
<path d="M39.7235 12.512C42.5395 12.512 44.7475 13.344 46.3475 15.008C47.9475 16.672 48.7475 19.392 48.7475 23.168H32.9555L32.8595 22.256H42.6995C42.7315 20.688 42.6355 19.248 42.4115 17.936C42.1875 16.592 41.8355 15.52 41.3555 14.72C40.8755 13.92 40.2355 13.52 39.4355 13.52C38.3155 13.52 37.3555 14.224 36.5555 15.632C35.7875 17.04 35.3235 19.376 35.1635 22.64L35.3075 22.928C35.2755 23.312 35.2435 23.712 35.2115 24.128C35.2115 24.544 35.2115 24.976 35.2115 25.424C35.2115 27.632 35.5155 29.424 36.1235 30.8C36.7635 32.176 37.5635 33.184 38.5235 33.824C39.4835 34.432 40.4595 34.736 41.4515 34.736C42.1235 34.736 42.8115 34.64 43.5155 34.448C44.2515 34.224 44.9875 33.84 45.7235 33.296C46.4595 32.72 47.1475 31.92 47.7875 30.896L48.6515 31.184C48.2675 32.4 47.6595 33.584 46.8275 34.736C45.9955 35.888 44.9395 36.832 43.6595 37.568C42.3795 38.304 40.8435 38.672 39.0515 38.672C36.8755 38.672 34.9555 38.208 33.2915 37.28C31.6275 36.352 30.3155 34.944 29.3555 33.056C28.4275 31.168 27.9635 28.768 27.9635 25.856C27.9635 22.88 28.4595 20.4 29.4515 18.416C30.4755 16.432 31.8675 14.96 33.6275 14C35.4195 13.008 37.4515 12.512 39.7235 12.512Z" fill="#FAFAFA"/>
<path d="M67.7578 12.512C68.7818 12.512 69.6138 12.736 70.2538 13.184C70.8938 13.6 71.3578 14.144 71.6458 14.816C71.9658 15.488 72.1258 16.192 72.1258 16.928C72.1258 18.112 71.7738 19.088 71.0698 19.856C70.3978 20.592 69.5018 20.96 68.3818 20.96C67.2618 20.96 66.3818 20.688 65.7418 20.144C65.1338 19.568 64.8298 18.816 64.8298 17.888C64.8298 16.992 65.0218 16.256 65.4058 15.68C65.8218 15.072 66.3338 14.56 66.9418 14.144C66.4938 14.016 66.0458 14.032 65.5978 14.192C64.9898 14.288 64.4138 14.544 63.8698 14.96C63.3258 15.344 62.8618 15.84 62.4778 16.448C62.0938 17.024 61.7898 17.664 61.5658 18.368C61.3418 19.04 61.2298 19.696 61.2298 20.336V33.056C61.2298 34.592 61.5978 35.632 62.3338 36.176C63.1018 36.72 64.2378 36.992 65.7418 36.992V38C65.0058 37.968 63.9338 37.936 62.5258 37.904C61.1178 37.84 59.6458 37.808 58.1098 37.808C56.8298 37.808 55.5338 37.84 54.2218 37.904C52.9098 37.936 51.9178 37.968 51.2458 38V36.992C52.3658 36.992 53.1498 36.752 53.5978 36.272C54.0778 35.792 54.3178 34.88 54.3178 33.536V18.416C54.3178 16.976 54.0938 15.92 53.6458 15.248C53.2298 14.544 52.4298 14.192 51.2458 14.192V13.184C52.2698 13.28 53.2618 13.328 54.2218 13.328C55.5658 13.328 56.8138 13.28 57.9658 13.184C59.1498 13.056 60.2378 12.88 61.2298 12.656V17.12C61.6138 16.256 62.1258 15.472 62.7658 14.768C63.4058 14.064 64.1418 13.52 64.9738 13.136C65.8058 12.72 66.7338 12.512 67.7578 12.512Z" fill="#FAFAFA"/>
<path d="M91.508 12.512C92.852 12.512 93.94 12.688 94.772 13.04C95.636 13.36 96.308 13.808 96.788 14.384C97.3 14.992 97.668 15.776 97.892 16.736C98.148 17.696 98.276 18.992 98.276 20.624V33.536C98.276 34.88 98.5 35.792 98.948 36.272C99.428 36.752 100.228 36.992 101.348 36.992V38C100.74 37.968 99.828 37.936 98.612 37.904C97.396 37.84 96.196 37.808 95.012 37.808C93.796 37.808 92.596 37.84 91.412 37.904C90.26 37.936 89.38 37.968 88.772 38V36.992C89.732 36.992 90.404 36.752 90.788 36.272C91.172 35.792 91.364 34.88 91.364 33.536V18.608C91.364 17.808 91.284 17.12 91.124 16.544C90.964 15.936 90.676 15.472 90.26 15.152C89.844 14.8 89.22 14.624 88.388 14.624C87.524 14.624 86.724 14.864 85.988 15.344C85.284 15.824 84.708 16.496 84.26 17.36C83.844 18.192 83.636 19.136 83.636 20.192V33.536C83.636 34.88 83.828 35.792 84.212 36.272C84.628 36.752 85.3 36.992 86.228 36.992V38C85.652 37.968 84.804 37.936 83.684 37.904C82.596 37.84 81.46 37.808 80.276 37.808C79.06 37.808 77.812 37.84 76.532 37.904C75.252 37.936 74.292 37.968 73.652 38V36.992C74.772 36.992 75.556 36.752 76.004 36.272C76.484 35.792 76.724 34.88 76.724 33.536V18.416C76.724 16.976 76.5 15.92 76.052 15.248C75.636 14.544 74.836 14.192 73.652 14.192V13.184C74.676 13.28 75.668 13.328 76.628 13.328C77.972 13.328 79.22 13.28 80.372 13.184C81.556 13.056 82.644 12.88 83.636 12.656V16.976C84.436 15.344 85.524 14.192 86.9 13.52C88.276 12.848 89.812 12.512 91.508 12.512Z" fill="#FAFAFA"/>
<path d="M109.76 38.336C108.32 38.336 107.12 38.064 106.16 37.52C105.2 36.976 104.496 36.256 104.048 35.36C103.6 34.432 103.376 33.424 103.376 32.336C103.376 30.96 103.68 29.84 104.288 28.976C104.928 28.112 105.744 27.408 106.736 26.864C107.728 26.32 108.768 25.872 109.856 25.52C110.976 25.168 112.032 24.832 113.024 24.512C114.048 24.16 114.864 23.76 115.472 23.312C116.112 22.832 116.432 22.224 116.432 21.488V17.744C116.432 16.912 116.288 16.176 116 15.536C115.744 14.864 115.328 14.352 114.752 14C114.208 13.648 113.488 13.472 112.592 13.472C111.952 13.472 111.312 13.568 110.672 13.76C110.032 13.92 109.504 14.208 109.088 14.624C109.984 14.944 110.672 15.44 111.152 16.112C111.664 16.752 111.92 17.488 111.92 18.32C111.92 19.408 111.536 20.272 110.768 20.912C110.032 21.552 109.152 21.872 108.128 21.872C106.976 21.872 106.096 21.52 105.488 20.816C104.912 20.08 104.624 19.2 104.624 18.176C104.624 17.248 104.848 16.48 105.296 15.872C105.776 15.264 106.432 14.688 107.264 14.144C108.16 13.632 109.232 13.232 110.48 12.944C111.76 12.656 113.136 12.512 114.608 12.512C116.08 12.512 117.408 12.672 118.592 12.992C119.776 13.28 120.768 13.824 121.568 14.624C122.304 15.36 122.784 16.272 123.008 17.36C123.232 18.416 123.344 19.76 123.344 21.392V34.448C123.344 35.248 123.424 35.808 123.584 36.128C123.744 36.416 124.016 36.56 124.4 36.56C124.688 36.56 124.96 36.48 125.216 36.32C125.504 36.16 125.808 35.968 126.128 35.744L126.608 36.56C125.936 37.136 125.152 37.584 124.256 37.904C123.392 38.192 122.416 38.336 121.328 38.336C120.144 38.336 119.2 38.176 118.496 37.856C117.792 37.504 117.28 37.04 116.96 36.464C116.672 35.888 116.528 35.216 116.528 34.448C115.76 35.664 114.832 36.624 113.744 37.328C112.656 38 111.328 38.336 109.76 38.336ZM113.168 35.264C113.808 35.264 114.384 35.12 114.896 34.832C115.44 34.512 115.952 34 116.432 33.296V23.456C116.144 23.936 115.744 24.368 115.232 24.752C114.72 25.136 114.176 25.536 113.6 25.952C113.024 26.336 112.464 26.768 111.92 27.248C111.408 27.728 110.992 28.32 110.672 29.024C110.352 29.728 110.192 30.576 110.192 31.568C110.192 32.816 110.464 33.744 111.008 34.352C111.552 34.96 112.272 35.264 113.168 35.264Z" fill="#FAFAFA"/>
<path d="M145.836 12.512C147.18 12.512 148.268 12.688 149.1 13.04C149.964 13.36 150.636 13.808 151.116 14.384C151.628 14.992 151.996 15.776 152.22 16.736C152.476 17.696 152.604 18.992 152.604 20.624V33.536C152.604 34.88 152.828 35.792 153.276 36.272C153.756 36.752 154.556 36.992 155.676 36.992V38C155.068 37.968 154.156 37.936 152.94 37.904C151.724 37.84 150.524 37.808 149.34 37.808C148.124 37.808 146.924 37.84 145.74 37.904C144.588 37.936 143.708 37.968 143.1 38V36.992C144.06 36.992 144.732 36.752 145.116 36.272C145.5 35.792 145.692 34.88 145.692 33.536V18.608C145.692 17.808 145.612 17.12 145.452 16.544C145.292 15.936 145.004 15.472 144.588 15.152C144.172 14.8 143.548 14.624 142.716 14.624C141.852 14.624 141.052 14.864 140.316 15.344C139.612 15.824 139.036 16.496 138.588 17.36C138.172 18.192 137.964 19.136 137.964 20.192V33.536C137.964 34.88 138.156 35.792 138.54 36.272C138.956 36.752 139.628 36.992 140.556 36.992V38C139.98 37.968 139.132 37.936 138.012 37.904C136.924 37.84 135.788 37.808 134.604 37.808C133.388 37.808 132.14 37.84 130.86 37.904C129.58 37.936 128.62 37.968 127.98 38V36.992C129.1 36.992 129.884 36.752 130.332 36.272C130.812 35.792 131.052 34.88 131.052 33.536V18.416C131.052 16.976 130.828 15.92 130.38 15.248C129.964 14.544 129.164 14.192 127.98 14.192V13.184C129.004 13.28 129.996 13.328 130.956 13.328C132.3 13.328 133.548 13.28 134.7 13.184C135.884 13.056 136.972 12.88 137.964 12.656V16.976C138.764 15.344 139.852 14.192 141.228 13.52C142.604 12.848 144.14 12.512 145.836 12.512Z" fill="#FAFAFA"/>
<path d="M181.081 0.416016V32.72C181.081 34.16 181.305 35.232 181.753 35.936C182.201 36.608 183.001 36.944 184.153 36.944V37.952C183.161 37.856 182.169 37.808 181.177 37.808C179.833 37.808 178.569 37.856 177.385 37.952C176.233 38.048 175.161 38.224 174.169 38.48V6.17602C174.169 4.73602 173.945 3.68002 173.497 3.00802C173.081 2.30402 172.281 1.95202 171.097 1.95202V0.944017C172.121 1.04002 173.113 1.08802 174.073 1.08802C175.385 1.08802 176.633 1.04002 177.817 0.944017C179.001 0.816017 180.089 0.640017 181.081 0.416016ZM168.841 12.512C170.249 12.512 171.481 12.752 172.537 13.232C173.625 13.68 174.473 14.448 175.081 15.536L174.505 16.064C174.089 15.296 173.529 14.752 172.825 14.432C172.153 14.08 171.433 13.904 170.665 13.904C169.033 13.904 167.737 14.864 166.777 16.784C165.817 18.672 165.353 21.6 165.385 25.568C165.385 28.288 165.561 30.464 165.913 32.096C166.297 33.696 166.825 34.848 167.497 35.552C168.201 36.256 169.001 36.608 169.897 36.608C170.985 36.608 171.961 36.176 172.825 35.312C173.689 34.448 174.153 33.28 174.217 31.808L174.457 33.488C173.977 35.184 173.193 36.48 172.105 37.376C171.049 38.24 169.657 38.672 167.929 38.672C166.041 38.672 164.345 38.208 162.841 37.28C161.369 36.352 160.217 34.928 159.385 33.008C158.553 31.056 158.137 28.544 158.137 25.472C158.137 22.56 158.601 20.16 159.529 18.272C160.457 16.352 161.721 14.912 163.321 13.952C164.953 12.992 166.793 12.512 168.841 12.512Z" fill="#FAFAFA"/>
<path d="M198.536 12.512C200.872 12.512 202.92 12.944 204.68 13.808C206.44 14.672 207.816 16.064 208.808 17.984C209.8 19.904 210.296 22.448 210.296 25.616C210.296 28.784 209.8 31.328 208.808 33.248C207.816 35.136 206.44 36.512 204.68 37.376C202.92 38.24 200.872 38.672 198.536 38.672C196.264 38.672 194.232 38.24 192.44 37.376C190.68 36.512 189.288 35.136 188.264 33.248C187.272 31.328 186.776 28.784 186.776 25.616C186.776 22.448 187.272 19.904 188.264 17.984C189.288 16.064 190.68 14.672 192.44 13.808C194.232 12.944 196.264 12.512 198.536 12.512ZM198.536 13.472C197.256 13.472 196.184 14.432 195.32 16.352C194.456 18.24 194.024 21.328 194.024 25.616C194.024 29.904 194.456 32.992 195.32 34.88C196.184 36.768 197.256 37.712 198.536 37.712C199.848 37.712 200.92 36.768 201.752 34.88C202.616 32.992 203.048 29.904 203.048 25.616C203.048 21.328 202.616 18.24 201.752 16.352C200.92 14.432 199.848 13.472 198.536 13.472Z" fill="#FAFAFA"/>
</svg>
